<?xml version="1.0" encoding="utf-8"?>
<!-- Generator: Adobe Illustrator 15.0.0, SVG Export Plug-In . SVG Version: 6.00 Build 0)  -->
<!DOCTYPE svg PUBLIC "-//W3C//DTD SVG 1.1//EN" "http://www.w3.org/Graphics/SVG/1.1/DTD/svg11.dtd">
<svg version="1.1" id="图层_1" xmlns="http://www.w3.org/2000/svg" xmlns:xlink="http://www.w3.org/1999/xlink" x="0px" y="0px"
	 width="245.313px" height="200px" viewBox="0 0 245.313 200" enable-background="new 0 0 245.313 200" xml:space="preserve">
<path fill="#23BAB5" d="M245.281,132.535v-34.11c0.568-12.506-7.082-23.922-18.867-28.148c-2.213-1.155-3.949-3.052-4.904-5.358
	c-6.264-15.093-12.15-30.639-18.263-45.958C199.549,6.979,188.055-0.85,175.552,0.095H69.901
	C57.317-0.961,45.696,6.891,41.979,18.961c-6.112,15.093-12.074,30.714-18.262,45.958c-0.956,2.306-2.692,4.203-4.905,5.358
	C7.14,74.504-0.458,85.794,0.021,98.199v57.504c-0.013,0.226-0.013,0.452,0,0.679c0,3.542,2.872,6.414,6.415,6.414l0,0h15.545
	v28.224c0,4.96,4.021,8.98,8.98,8.98h13.357c4.96,0,8.98-4.021,8.98-8.98l0,0V163.4h138.704v27.619c0,4.96,4.021,8.98,8.979,8.98
	h13.357c4.96,0,8.98-4.021,8.98-8.98v-27.922h15.546c3.542,0,6.415-2.871,6.415-6.414c0.012-0.227,0.012-0.453,0-0.68V132.535z
	 M49.073,123.404c-9.801-0.288-17.56-8.383-17.432-18.188c0.325-9.558,8.171-17.136,17.734-17.13
	c9.773,0,17.697,7.923,17.697,17.697c0,9.773-7.923,17.695-17.697,17.695L49.073,123.404z M42.96,68.013
	c5.886-15.093,11.169-29.506,17.433-43.694c2.057-3.036,5.397-4.957,9.056-5.207h105.65c3.687,0.228,7.058,2.151,9.132,5.207
	c6.942,14.188,11.998,28.601,18.111,43.694H42.96z M196.229,123.404c-9.752,0.12-17.755-7.688-17.875-17.439
	c-0.121-9.752,7.687-17.755,17.438-17.876c9.63-0.119,17.58,7.501,17.869,17.128C213.789,115.021,206.029,123.116,196.229,123.404z"
	/>
</svg>
