<?xml version="1.0" encoding="utf-8"?>
<!-- Generator: Adobe Illustrator 15.0.0, SVG Export Plug-In . SVG Version: 6.00 Build 0)  -->
<!DOCTYPE svg PUBLIC "-//W3C//DTD SVG 1.1//EN" "http://www.w3.org/Graphics/SVG/1.1/DTD/svg11.dtd">
<svg version="1.1" id="图层_1" xmlns="http://www.w3.org/2000/svg" xmlns:xlink="http://www.w3.org/1999/xlink" x="0px" y="0px"
	 width="92px" height="92px" viewBox="0 0 92 92" enable-background="new 0 0 92 92" xml:space="preserve">
<title>洗车</title>
<desc>Created with Sketch.</desc>
<g id="iPhone-7" transform="translate(-284.000000, -748.000000)">
	<g id="洗车" transform="translate(285.000000, 749.000000)">
		<path id="Shape" fill="#23BAB5" d="M48.162,38.15c-2.766-1.517-3.718-4.868-2.129-7.483C47.621,28.055,55.548,26,55.548,26
			s2.086,7.55,0.497,10.165C54.456,38.78,50.928,39.667,48.162,38.15L48.162,38.15z M59.504,40.22
			c-1.48-0.835-1.938-2.774-1.023-4.325c0.915-1.553,5.071-2.543,5.071-2.543s1.205,4.021,0.288,5.575
			C62.926,40.477,60.984,41.058,59.504,40.22L59.504,40.22z M63.498,51.857c0-0.475-0.395-0.861-0.879-0.861
			c-0.126,0-0.254-0.02-0.394,0c-2.879,0.271-5.282,2.021-6.557,4.424c-0.105,0.254-0.09,0.498-0.09,0.748
			c0,0.447,0.348,0.817,0.79,0.861h5.369c0.971,0,1.76-0.771,1.76-1.723V51.857z M34.38,55.409c-1.275-2.399-3.68-4.146-6.562-4.413
			c-0.173-0.018-0.278,0-0.402,0c-0.484,0-0.878,0.387-0.878,0.861v3.449c0,0.951,0.788,1.723,1.759,1.723h5.361
			c0.448-0.041,0.798-0.412,0.798-0.861C34.457,55.916,34.485,55.643,34.38,55.409L34.38,55.409z M64.36,64H60.84
			c-1.146,0-2.113-0.721-2.477-1.723c-0.196-0.672-0.475-1.124-0.948-1.436c-3.06,0.354-7.481,0.574-12.415,0.574
			c-4.934,0-9.356-0.221-12.415-0.574c-0.474,0.312-0.783,0.707-0.948,1.436C31.274,63.279,30.309,64,29.16,64h-3.52
			C24.182,64,23,62.843,23,61.416v-2.584v-0.864v-7.755c0-2.818,1.385-5.313,3.521-6.884v-0.013c0-6.663,5.516-12.065,12.32-12.065
			h2.639c0.008,0.002,0.013,0.007,0.018,0.013c0.005,0,0.01-0.002,0.016-0.002c0.971,0,1.756,0.771,1.756,1.72
			c0,0.951-0.786,1.72-1.756,1.72c-0.016,0-0.028-0.002-0.044-0.002h-2.482c-4.455,0-8.068,3.536-8.068,7.899
			c0,0.293-0.01,0.515-0.01,0.515s0.01,0.151,0.01,0.203c0,0.476,6.304,0.864,14.081,0.864s14.169-0.388,14.169-0.864
			c0.183-0.499,0.659-0.862,1.231-0.862h1.761c0.571,0,1.013,0.347,1.318,0.862C65.615,44.89,67,47.395,67,50.213v7.755v0.864v2.584
			C67,62.843,65.818,64,64.36,64L64.36,64z"/>
		<circle id="Oval-3" fill="none" stroke="#23BAB5" cx="45" cy="45" r="45"/>
	</g>
</g>
</svg>
