<?xml version="1.0" encoding="UTF-8"?>
<svg width="92px" height="92px" viewBox="0 0 92 92" version="1.1" xmlns="http://www.w3.org/2000/svg" xmlns:xlink="http://www.w3.org/1999/xlink">
    <!-- Generator: Sketch 43.1 (39012) - http://www.bohemiancoding.com/sketch -->
    <title>Group 3</title>
    <desc>Created with Sketch.</desc>
    <defs></defs>
    <g id="结算详情" stroke="none" stroke-width="1" fill="none" fill-rule="evenodd">
        <g id="iPhone-7我的工单2-Copy-5" transform="translate(-79.000000, -290.000000)">
            <g id="Group-2" transform="translate(0.000000, 236.000000)">
                <g id="类别" transform="translate(80.000000, 55.000000)">
                    <g id="Group-3">
                        <g id="保养-copy" stroke="#23BAB5">
                            <circle id="Oval" cx="45" cy="45" r="45"></circle>
                        </g>
                        <g id="钱袋" transform="translate(27.000000, 25.000000)" fill-rule="nonzero" fill="#23BAB5">
                            <path d="M35.907788,28.64 C35.6116708,24.8053333 34.0115986,21.5946667 31.4114814,18.88 C29.9205051,17.32 28.26069,15.976 26.3826832,14.9333333 C25.4787463,14.432 24.5540293,13.9706667 23.5643743,13.656 C23.5591793,13.6533333 23.5539842,13.6506667 23.5487892,13.648 C22.8500564,13.4346667 22.8448613,13.424 22.2630169,13.864 C21.4162255,14.504 20.4473506,14.808 19.4369154,15.016 C18.1147779,15.2853333 16.7822503,15.3333333 15.4393326,15.2106667 C14.566566,15.1306667 13.7041894,14.968 12.8963608,14.608 C12.5768658,14.4666667 12.2781511,14.28 11.9820338,14.096 C11.7118918,13.9253333 11.4495423,13.92 11.1586201,14.0373333 C9.28321082,14.792 7.57923788,15.832 6.05189628,17.1813333 C4.47000676,18.5786667 3.10111387,20.1626667 2.04652086,22.0213333 C1.09323112,23.6986667 0.454241263,25.4933333 0.171111612,27.4133333 C-0.104225479,29.3146667 -0.0600676437,31.208 0.407485908,33.0746667 C0.932184893,35.1946667 2.09587373,36.8293333 3.95829538,37.92 C5.26225028,38.6853333 6.68049605,39.1226667 8.13770462,39.4373333 C9.36113641,39.704 10.6001533,39.848 11.8443653,39.9573333 C11.9067057,39.9626667 11.9690462,39.984 12.0287892,39.9973333 L24.1592063,39.9973333 C24.4501285,39.9573333 24.7436483,39.9093333 25.0345705,39.88 C26.7125682,39.7066667 28.3593957,39.3973333 29.9568703,38.84 C31.354336,38.3493333 32.6323157,37.6506667 33.6765186,36.5466667 C34.52331,35.6453333 35.112947,34.5893333 35.4765998,33.3973333 C35.9493484,31.848 36.032469,30.2506667 35.907788,28.64 Z M19.3174295,31.88 C18.9381917,32.0693333 18.5303811,32.1973333 18.0965953,32.3733333 C18.0965953,32.8773333 18.1043878,33.408 18.0965953,33.9333333 C18.0888027,34.264 18.0784126,34.2826667 17.7511251,34.2933333 C17.2939617,34.3066667 16.8367982,34.2906667 16.3822322,34.288 C16.2705389,34.288 16.2133935,34.232 16.2056009,34.1253333 C16.1848207,33.8693333 16.1666381,33.6133333 16.1614431,33.3573333 C16.1536505,33.0746667 16.1588455,32.7893333 16.1588455,32.496 C15.7484374,32.4213333 15.3432244,32.3573333 14.9406088,32.272 C14.3587644,32.1466667 13.7925051,31.976 13.3119639,31.592 C13.262611,31.552 13.2132582,31.456 13.2288433,31.4053333 C13.3950846,30.7786667 13.5795085,30.152 13.7587373,29.528 C13.7639324,29.5013333 13.7795175,29.48 13.8028952,29.44 C13.9873191,29.5173333 14.171743,29.5973333 14.3535693,29.672 C15.0756798,29.976 15.8133754,30.2266667 16.6030214,30.256 C17.0861601,30.272 17.5537136,30.24 17.9641218,29.9306667 C18.6784397,29.3893333 18.7044149,28.5013333 17.9849019,27.9706667 C17.6835896,27.7466667 17.3225344,27.5973333 16.9796618,27.44 C16.3536595,27.152 15.6990846,26.92 15.0938625,26.5893333 C14.3301917,26.176 13.7301646,25.568 13.457425,24.6933333 C12.9898715,23.192 13.5898985,21.6293333 14.9458038,20.8373333 C15.3120541,20.6266667 15.7224622,20.496 16.1198828,20.3493333 C16.2419662,20.304 16.280929,20.2613333 16.280929,20.136 C16.286124,19.6533333 16.2991116,19.1733333 16.3095017,18.6906667 C16.3146967,18.5013333 16.3952198,18.424 16.5744487,18.4293333 C17.0368072,18.4426667 17.4991657,18.456 17.9615242,18.4533333 C18.1459481,18.4533333 18.2004961,18.5546667 18.2082886,18.7066667 C18.2238737,18.9386667 18.2290688,19.168 18.2342638,19.4 C18.2368613,19.5706667 18.2342638,19.744 18.2212762,19.9146667 C18.2082886,20.0826667 18.2628365,20.1466667 18.4342728,20.176 C19.1070304,20.2933333 19.7823856,20.4026667 20.4005953,20.7253333 C20.7694431,20.9173333 20.7694431,20.9146667 20.6629448,21.3333333 C20.5252762,21.888 20.4005953,22.448 20.1226607,22.9813333 C20.0291499,22.9386667 19.9382368,22.9013333 19.8473236,22.8613333 C19.0524825,22.5333333 18.2316663,22.3066667 17.3718873,22.3253333 C17.1069402,22.3306667 16.8290056,22.3813333 16.5822413,22.48 C15.9822142,22.72 15.8029853,23.4986667 16.2081984,24.0133333 C16.4471702,24.3173333 16.7692627,24.496 17.1069402,24.648 C17.8030755,24.96 18.5147959,25.232 19.1979436,25.5706667 C19.8940789,25.912 20.4863134,26.4 20.8551612,27.12 C21.5928568,28.576 21.3772627,30.8426667 19.3174295,31.88 Z" id="Shape"></path>
                            <path d="M9.98713867,7.38666667 C10.5066426,8.67733333 11.0157565,9.976 11.5092852,11.28 C11.7274769,11.8586667 12.1248974,12.224 12.6859617,12.384 C13.3145614,12.5626667 13.9535513,12.728 14.5977362,12.848 C16.3770372,13.1706667 18.1459481,13.1306667 19.8784938,12.5493333 C20.36423,12.3866667 20.8317835,12.16 21.2785569,11.9066667 C21.7149402,11.6586667 21.9461195,11.2533333 21.883779,10.7146667 C21.8604014,10.4986667 21.8448162,10.28 21.8578038,10.0613333 C21.9591071,8.056 22.5357565,6.192 23.4370958,4.42133333 C23.6059346,4.09333333 23.7487982,3.73333333 23.8215287,3.37066667 C23.9669899,2.648 23.6215197,2.13066667 22.9461646,1.98666667 C22.7903134,1.952 22.6266697,1.952 22.4656234,1.95733333 C21.943522,1.98133333 21.4681759,2.16266667 21.029195,2.46133333 C20.7746381,2.64 20.5122886,2.816 20.234354,2.94133333 C19.7122525,3.17333333 19.2784667,3 19.0317024,2.472 C18.920009,2.24266667 18.855071,1.992 18.7407802,1.76266667 C18.5693439,1.41866667 18.4134927,1.05333333 18.1797159,0.757333333 C17.3277294,-0.325333333 15.8133754,-0.229333333 15.0938625,0.952 C14.901646,1.26666667 14.7613799,1.62133333 14.641894,1.97333333 C14.4003247,2.69066667 13.9275761,3.13333333 13.2002706,3.232 C12.6288162,3.312 12.0469718,3.31733333 11.4703224,3.35466667 C11.4703224,3.33866667 11.4703224,3.32 11.4677249,3.304 C11.3274589,3.304 11.1871928,3.296 11.0443292,3.30666667 C10.6209335,3.336 10.1871477,3.32266667 9.77933709,3.41333333 C9.109177,3.56 8.80526719,4.04533333 8.90137542,4.728 C8.9377407,4.96 9.02086133,5.18933333 9.11177452,5.40533333 C9.39750169,6.06666667 9.71699662,6.71733333 9.98713867,7.38666667 Z" id="Shape"></path>
                        </g>
                    </g>
                </g>
            </g>
        </g>
    </g>
</svg>