<?xml version="1.0" encoding="UTF-8"?>
<svg width="92px" height="92px" viewBox="0 0 92 92" version="1.1" xmlns="http://www.w3.org/2000/svg" xmlns:xlink="http://www.w3.org/1999/xlink">
    <!-- Generator: Sketch 43.1 (39012) - http://www.bohemiancoding.com/sketch -->
    <title>Group 3</title>
    <desc>Created with Sketch.</desc>
    <defs></defs>
    <g id="付款详情" stroke="none" stroke-width="1" fill="none" fill-rule="evenodd">
        <g id="iPhone-7我的工单2-Copy-4" transform="translate(-79.000000, -290.000000)">
            <g id="Group-2" transform="translate(0.000000, 236.000000)">
                <g id="类别" transform="translate(80.000000, 55.000000)">
                    <g id="Group-3">
                        <g id="保养-copy" stroke="#23BAB5">
                            <circle id="Oval" cx="45" cy="45" r="45"></circle>
                        </g>
                        <g id="付款" transform="translate(27.000000, 27.000000)" fill-rule="nonzero" fill="#23BAB5">
                            <path d="M36,31.4231786 C36,31.9374643 35.9177143,32.4106071 35.7325714,32.8426071 C35.568,33.2746071 35.3211429,33.6654643 34.992,33.9946071 C34.6834286,34.32375 34.3131429,34.5911786 33.8811429,34.7763214 C33.4491429,34.9614643 32.8937143,35.1054643 32.3794286,35.1054643 L4.50514286,35.1054643 C4.01142857,35.1054643 2.75657143,34.9614643 2.304,34.7763214 C1.85142857,34.5911786 1.46057143,34.32375 1.11085714,33.9946071 C0.761142857,33.6654643 0.493714286,33.2746071 0.288,32.8426071 C0.0822857143,32.4106071 0,31.9374643 0,31.4231786 L0,11.4688929 C0,10.4608929 0.349714286,9.59689286 1.04914286,8.89746429 C1.74857143,8.19803571 2.592,8.11575 3.6,8.11575 L32.4,8.11575 C33.408,8.11575 34.2514286,8.19803571 34.9508571,8.89746429 C35.6502857,9.59689286 36,10.4608929 36,11.4688929 L36,17.1054643 L26.9897143,17.1054643 C25.9817143,17.1054643 25.1382857,17.2494643 24.4388571,17.9488929 C23.7394286,18.6483214 23.3897143,19.49175 23.3897143,20.49975 C23.4102857,21.1991786 23.5542857,21.79575 23.8217143,22.3306071 C24.0274286,22.7831786 24.3771429,23.1946071 24.8708571,23.5648929 C25.3645714,23.9351786 26.064,24.2848929 26.9897143,24.2848929 L36,24.2848929 L36,31.4231786 L36,31.4231786 L36,31.4231786 Z M30.5897143,6.30546429 L12.5897143,6.30546429 C14.0091429,5.56489286 15.3668571,4.51575 16.6422857,3.83689286 C17.7531429,3.26089286 18.8434286,2.66432143 19.9337143,2.06775 C21.024,1.49175 21.8674286,1.01860714 22.464,0.710035714 C23.3897143,0.19575 24.2125714,-0.0305357143 24.9325714,0.0106071429 C25.6525714,0.05175 26.2697143,0.175178571 26.784,0.380892857 C27.36,0.668892857 27.8742857,1.05975 28.2857143,1.53289286 L30.5897143,6.30546429 L30.5897143,6.30546429 Z M25.2205714,20.49975 C25.2205714,19.9854643 25.3851429,19.5740357 25.7348571,19.2243214 C26.0845714,18.8746071 26.496,18.7100357 27.0102857,18.7100357 C27.5245714,18.7100357 27.936,18.8746071 28.2857143,19.2243214 C28.6354286,19.5740357 28.8,20.0060357 28.8,20.49975 C28.8,21.0140357 28.6354286,21.4460357 28.2857143,21.79575 C27.936,22.1454643 27.5245714,22.3306071 27.0102857,22.3306071 C26.496,22.3306071 26.0845714,22.1454643 25.7348571,21.79575 C25.3851429,21.4460357 25.2205714,21.0140357 25.2205714,20.49975 L25.2205714,20.49975 L25.2205714,20.49975 Z" id="Shape"></path>
                        </g>
                    </g>
                </g>
            </g>
        </g>
    </g>
</svg>