<?xml version="1.0" encoding="utf-8"?>
<!-- Generator: Adobe Illustrator 15.0.0, SVG Export Plug-In . SVG Version: 6.00 Build 0)  -->
<!DOCTYPE svg PUBLIC "-//W3C//DTD SVG 1.1//EN" "http://www.w3.org/Graphics/SVG/1.1/DTD/svg11.dtd">
<svg version="1.1" id="图层_1" xmlns="http://www.w3.org/2000/svg" xmlns:xlink="http://www.w3.org/1999/xlink" x="0px" y="0px"
	 width="92px" height="92px" viewBox="0 0 92 92" enable-background="new 0 0 92 92" xml:space="preserve">
<title>事故</title>
<desc>Created with Sketch.</desc>
<g id="工单详情页">
	<g id="事故" transform="translate(11.000000, 479.000000)">
		<path id="Shape" fill="#23BAB5" d="M28.868-430.782l-5.018,1.214l-0.401-5.867l-4.215,3.236l-5.821-3.843l2.208,7.282L10-427.95
			l6.223,3.843l-2.208,5.463l6.825-3.844l7.627,3.844l-4.215-7.89L28.868-430.782z M17.627-416.218v-1.618l-2.81,1.618H17.627z
			 M17.627-450h-3.011v12.137l3.011,2.226V-450z M58.174-435.031c-0.602-2.832-1.605-5.259-4.817-5.664
			c-3.011-0.404-6.021-0.809-8.631-1.213c-2.609-0.405-4.817-0.607-9.635,2.022c-4.817,2.63-7.427,3.642-9.033,4.653h-0.602
			l0.201,4.451l7.627-1.821l-4.416,4.248c0.803,1.215,1.205,2.631,1.003,4.047c0,0.404-0.201,0.809-0.401,1.213l18.467,2.63v-1.416
			c0.4-3.034,3.211-5.259,6.021-4.854c3.011,0.404,5.018,3.236,4.617,6.271c0,0.405-0.201,0.81-0.402,1.214h0.201l1.605-1.82
			C60.182-420.668,58.776-432.199,58.174-435.031z M48.338-433.21l-17.864-2.427c1.405-0.81,3.412-1.619,6.222-3.237
			c4.015-2.225,6.022-2.023,8.229-1.618c1.205,0.202,2.609,0.404,4.216,0.606L48.338-433.21z M49.142-433.008l1.003-6.878
			c0.803,0.203,2.008,0.203,2.811,0.405c2.609,0.405,3.012,2.023,3.613,4.45c0.201,0.607,0.401,1.821,0.602,3.035L49.142-433.008z
			 M54.16-425.725c-2.609-0.405-5.019,1.617-5.42,4.248c-0.402,2.629,1.404,5.259,4.215,5.461c2.811,0.203,5.018-1.618,5.42-4.248
			C58.576-422.893,56.77-425.32,54.16-425.725z M26.459-425.928l2.007,3.844c0.401-0.607,0.803-1.416,0.803-2.225
			c0.201-1.215-0.201-2.631-0.803-3.642L26.459-425.928z"/>
		<circle id="Oval-2" fill="none" stroke="#23BAB5" cx="35" cy="-433" r="45"/>
	</g>
</g>
</svg>
