<?xml version="1.0" encoding="utf-8"?>
<!-- Generator: Adobe Illustrator 15.0.0, SVG Export Plug-In . SVG Version: 6.00 Build 0)  -->
<!DOCTYPE svg PUBLIC "-//W3C//DTD SVG 1.1//EN" "http://www.w3.org/Graphics/SVG/1.1/DTD/svg11.dtd">
<svg version="1.1" id="图层_1" xmlns="http://www.w3.org/2000/svg" xmlns:xlink="http://www.w3.org/1999/xlink" x="0px" y="0px"
	 width="56.69px" height="56.69px" viewBox="0 0 56.69 56.69" enable-background="new 0 0 56.69 56.69" xml:space="preserve">
<path fill="#23BAB5" d="M47.942,0.463c0.634,0,1.26,0,1.887,0.626c0.634,0.637,1.261,0.637,1.894,1.264
	c0.627,0.626,0.627,1.26,0.627,2.524v47.857c0,0.634,0,1.894-0.627,2.527c-0.633,0.627-1.26,1.261-1.894,1.261
	c-0.627,0-1.253,0-1.887,0c-1.268,0-2.527-0.634-3.154-1.261L28.419,39.513L12.043,55.262c-0.633,0.627-1.894,1.261-3.154,1.261
	c-0.634,0-1.268,0-1.894-0.634c-0.626-0.627-1.26-0.627-1.887-1.253c-0.634-0.627-0.634-1.261-0.634-2.521V4.884
	c0-0.627,0-1.891,0.634-2.524c0.626-0.627,1.26-1.264,1.887-1.264S8.255,0.47,8.889,0.47h39.053V0.463z"/>
</svg>
