<?xml version="1.0" encoding="utf-8"?>
<!-- Generator: Adobe Illustrator 15.0.0, SVG Export Plug-In . SVG Version: 6.00 Build 0)  -->
<!DOCTYPE svg PUBLIC "-//W3C//DTD SVG 1.1//EN" "http://www.w3.org/Graphics/SVG/1.1/DTD/svg11.dtd">
<svg version="1.1" id="图层_1" xmlns="http://www.w3.org/2000/svg" xmlns:xlink="http://www.w3.org/1999/xlink" x="0px" y="0px"
	 width="92px" height="92px" viewBox="0 0 92 92" enable-background="new 0 0 92 92" xml:space="preserve">
<title>其他</title>
<desc>Created with Sketch.</desc>
<g id="其他" transform="translate(639.000000, 755.000000)">
	<g id="Shape" transform="translate(24.000000, 24.000000)">
		<path fill="#23BAB5" d="M-596.019-736.278c0,0.68-0.567,1.231-1.267,1.231h-16.666c-0.699,0-1.267-0.551-1.267-1.231v-16.217
			c0-0.68,0.567-1.231,1.267-1.231h16.666c0.699,0,1.267,0.552,1.267,1.231V-736.278L-596.019-736.278z"/>
		<path fill="#23BAB5" d="M-596.019-713.27c0,0.68-0.567,1.23-1.267,1.23h-16.666c-0.699,0-1.267-0.551-1.267-1.23v-16.217
			c0-0.681,0.567-1.232,1.267-1.232h16.666c0.699,0,1.267,0.552,1.267,1.232V-713.27L-596.019-713.27z"/>
		<path fill="#23BAB5" d="M-618.514-713.27c0,0.68-0.567,1.23-1.266,1.23h-16.667c-0.699,0-1.266-0.551-1.266-1.23v-16.217
			c0-0.681,0.567-1.232,1.266-1.232h16.667c0.699,0,1.266,0.552,1.266,1.232V-713.27z"/>
		<path fill="#23BAB5" d="M-637.977-744.386c0,5.3,4.416,9.596,9.863,9.596s9.863-4.296,9.863-9.596c0-5.3-4.416-9.597-9.863-9.597
			S-637.977-749.687-637.977-744.386L-637.977-744.386z"/>
	</g>
	<circle id="Oval-6" fill="none" stroke="#23BAB5" cx="-593" cy="-709" r="45"/>
</g>
</svg>
