<?xml version="1.0" encoding="utf-8"?>
<!-- Generator: Adobe Illustrator 15.0.0, SVG Export Plug-In . SVG Version: 6.00 Build 0)  -->
<!DOCTYPE svg PUBLIC "-//W3C//DTD SVG 1.1//EN" "http://www.w3.org/Graphics/SVG/1.1/DTD/svg11.dtd">
<svg version="1.1" id="图层_1" xmlns="http://www.w3.org/2000/svg" xmlns:xlink="http://www.w3.org/1999/xlink" x="0px" y="0px"
	 width="92px" height="92px" viewBox="0 0 92 92" enable-background="new 0 0 92 92" xml:space="preserve">
<title>美容</title>
<desc>Created with Sketch.</desc>
<g id="美容" transform="translate(524.000000, 755.000000)">
	<circle id="Oval-5" fill="none" stroke="#23BAB5" cx="-478" cy="-709" r="45"/>
	<g id="汽车美容" transform="translate(23.000000, 26.000000)">
		<path id="Shape" fill="#23BAB5" d="M-519.46-728.077c0-0.472,0.393-0.854,0.879-0.854c0.124,0,0.252-0.02,0.391,0
			c2.874,0.266,5.272,2.004,6.545,4.385c0.108,0.252,0.093,0.491,0.093,0.741c0,0.44-0.347,0.81-0.792,0.854h-5.36
			c-0.969,0-1.756-0.765-1.756-1.708L-519.46-728.077L-519.46-728.077z M-490.395-724.558c1.275-2.38,3.674-4.108,6.551-4.374
			c0.175-0.018,0.277,0,0.4,0c0.486,0,0.88,0.383,0.88,0.854v3.417c0,0.943-0.786,1.708-1.759,1.708h-5.352
			c-0.445-0.04-0.797-0.41-0.797-0.854C-490.471-724.056-490.5-724.328-490.395-724.558L-490.395-724.558L-490.395-724.558z
			 M-520.322-716.043h3.514c1.146,0,2.11-0.714,2.473-1.707c0.195-0.666,0.473-1.114,0.946-1.422
			c3.054,0.349,7.468,0.567,12.393,0.567s9.339-0.219,12.394-0.567c0.473,0.308,0.781,0.7,0.945,1.422
			c0.362,0.993,1.326,1.707,2.473,1.707h3.515c1.454,0,2.635-1.146,2.635-2.562v-11.104c0-2.793-1.383-5.265-3.515-6.824v-0.01
			c0-6.604-5.506-11.958-12.298-11.958h-2.635c-0.005,0.002-0.011,0.008-0.019,0.013c-0.004,0-0.01-0.002-0.016-0.002
			c-0.969,0-1.752,0.765-1.752,1.705c0,0.943,0.783,1.705,1.752,1.705c0.016,0,0.029-0.003,0.045-0.005h2.478
			c4.447,0,8.054,3.507,8.054,7.832c0,0.288,0.011,0.507,0.011,0.507s-0.011,0.153-0.011,0.204c0,0.471-6.293,0.854-14.056,0.854
			c-7.764,0-14.144-0.382-14.144-0.854c-0.182-0.495-0.658-0.854-1.229-0.854h-1.758c-0.571,0-1.011,0.344-1.316,0.854
			c-2.131,1.56-3.514,4.042-3.514,6.834v11.104C-522.957-717.189-521.777-716.043-520.322-716.043L-520.322-716.043
			L-520.322-716.043z"/>
		<path id="Shape_1_" fill="#23BAB5" d="M-514.415-744.723l-2.108,4.18l-2.108-4.18l-4.218-2.09l4.218-2.09l2.108-4.182l2.108,4.182
			l4.216,2.09L-514.415-744.723z M-502.97-748.604l-1.355,2.686l-1.357-2.686l-2.709-1.343l2.709-1.346l1.357-2.687l1.355,2.687
			l2.712,1.346L-502.97-748.604z"/>
	</g>
</g>
</svg>
