<?xml version="1.0" encoding="utf-8"?>
<!-- Generator: Adobe Illustrator 15.0.0, SVG Export Plug-In . SVG Version: 6.00 Build 0)  -->
<!DOCTYPE svg PUBLIC "-//W3C//DTD SVG 1.1//EN" "http://www.w3.org/Graphics/SVG/1.1/DTD/svg11.dtd">
<svg version="1.1" id="图层_1" xmlns="http://www.w3.org/2000/svg" xmlns:xlink="http://www.w3.org/1999/xlink" x="0px" y="0px"
	 width="92px" height="92px" viewBox="0 0 92 92" enable-background="new 0 0 92 92" xml:space="preserve">
<title>维修</title>
<desc>Created with Sketch.</desc>
<path id="Oval-15" fill="none" stroke="#23BAB5" d="M46,91c24.854,0,45-20.146,45-45C91,21.147,70.854,1,46,1
	C21.147,1,1,21.147,1,46C1,70.854,21.147,91,46,91z"/>
<path id="Shape" fill="#23BAB5" d="M24.784,32.279l6.856,6.726l7.799-7.463l-6.932-6.755c0.157-0.071,0.231-0.112,0.311-0.139
	c6.739-2.24,14.247,1.521,16.334,8.179c0.793,2.531,0.799,5.06-0.018,7.584c-0.08,0.25,0.02,0.367,0.172,0.517
	c5.979,5.846,11.957,11.694,17.933,17.543c1.775,1.738,2.238,4.08,1.251,6.285c-1.029,2.3-3.738,3.654-6.229,3.13
	c-1.167-0.245-2.159-0.778-3.001-1.604c-5.95-5.827-11.906-11.647-17.851-17.479c-0.239-0.234-0.427-0.268-0.742-0.17
	c-7.002,2.169-14.577-2.033-16.294-9.023c-0.569-2.316-0.486-4.604,0.246-6.874C24.66,32.61,24.709,32.485,24.784,32.279
	L24.784,32.279z M65.439,63.271c-0.002-0.671-0.535-1.2-1.217-1.207c-0.697-0.007-1.254,0.527-1.256,1.204
	c-0.002,0.667,0.568,1.217,1.255,1.212C64.893,64.475,65.439,63.93,65.439,63.271L65.439,63.271z"/>
</svg>
