<?xml version="1.0" encoding="utf-8"?>
<!-- Generator: Adobe Illustrator 15.0.0, SVG Export Plug-In . SVG Version: 6.00 Build 0)  -->
<!DOCTYPE svg PUBLIC "-//W3C//DTD SVG 1.1//EN" "http://www.w3.org/Graphics/SVG/1.1/DTD/svg11.dtd">
<svg version="1.1" id="图层_1" xmlns="http://www.w3.org/2000/svg" xmlns:xlink="http://www.w3.org/1999/xlink" x="0px" y="0px"
	 width="92px" height="92px" viewBox="0 0 92 92" enable-background="new 0 0 92 92" xml:space="preserve">
<title>保养</title>
<desc>Created with Sketch.</desc>
<g id="保养" transform="translate(106.000000, 479.000000)">
	<g id="Shape" transform="translate(28.000000, 22.000000)">
		<path fill="#23BAB5" d="M-98.447-472.857h3.812c1.47,0,2.663-1.142,2.663-2.551c0-1.41-1.193-2.551-2.663-2.551h-3.812
			c-1.47,0-2.663,1.142-2.663,2.551C-101.11-473.999-99.917-472.857-98.447-472.857z"/>
		<path fill="#23BAB5" d="M-71.74-461.452h0.012l-0.025-0.014c-0.398-0.434-0.932-0.748-1.547-0.865l-14.188-7.931h-13.621
			l-3.257,8.922c-0.369,0.455-0.599,1.02-0.599,1.641v25.011c0,1.483,1.255,2.686,2.803,2.686h28.315
			c1.548,0,2.803-1.202,2.803-2.686v-25.011C-71.045-460.372-71.313-460.981-71.74-461.452z M-77.186-437.562
			c0,1.143-0.967,2.068-2.159,2.068h-17.322c-0.818,0-1.522-0.441-1.888-1.085c-0.007-0.217-0.018-0.434-0.018-0.652
			c0-9.144,3.328-15.639,11.601-18.986c0.128,0.116,9.785,5.301,9.785,5.301V-437.562z M-75.793-456.268
			c-0.437,0.72-1.4,0.964-2.152,0.545l-9.149-5.099c-0.752-0.419-1.007-1.343-0.569-2.063c0.438-0.72,1.4-0.965,2.152-0.546
			l9.15,5.1C-75.61-457.912-75.355-456.988-75.793-456.268z"/>
	</g>
	<circle id="Oval" fill="none" stroke="#23BAB5" cx="-60" cy="-433" r="45"/>
</g>
</svg>
