<?xml version="1.0" encoding="utf-8"?>
<!-- Generator: Adobe Illustrator 15.0.0, SVG Export Plug-In . SVG Version: 6.00 Build 0)  -->
<!DOCTYPE svg PUBLIC "-//W3C//DTD SVG 1.1//EN" "http://www.w3.org/Graphics/SVG/1.1/DTD/svg11.dtd">
<svg version="1.1" id="图层_1" xmlns="http://www.w3.org/2000/svg" xmlns:xlink="http://www.w3.org/1999/xlink" x="0px" y="0px"
	 width="92px" height="92px" viewBox="0 0 92 92" enable-background="new 0 0 92 92" xml:space="preserve">
<title>轮胎</title>
<desc>Created with Sketch.</desc>
<g id="轮胎" transform="translate(403.000000, 745.000000)">
	<path id="Shape" fill="#23BAB5" d="M-357-677c-12.15,0-22-9.85-22-22s9.85-22,22-22s22,9.85,22,22S-344.85-677-357-677z
		 M-357-714.411c-8.511,0-15.411,6.9-15.411,15.412c0,8.511,6.9,15.412,15.411,15.412c8.511,0,15.41-6.899,15.41-15.412
		C-341.59-707.511-348.488-714.411-357-714.411z M-350.558-694.674c0,2.66,1.854,4.886,4.341,5.457
		c-1.42,1.56-3.178,2.805-5.156,3.627c0.012-0.143,0.02-0.287,0.02-0.434c0-3.094-2.508-5.601-5.601-5.601s-5.601,2.507-5.601,5.601
		c0,0.142,0.007,0.281,0.017,0.421c-1.956-0.821-3.694-2.059-5.103-3.602c2.646-0.446,4.663-2.747,4.663-5.521
		c0-3.094-2.507-5.601-5.601-5.601c-1.034,0-2.003,0.282-2.834,0.771c0.103-2.604,0.896-5.03,2.196-7.105
		c0.947,1.75,2.799,2.94,4.93,2.94c3.093,0,5.601-2.508,5.601-5.601c0-1.458-0.557-2.784-1.469-3.781
		c1.036-0.235,2.113-0.363,3.221-0.363c1.154,0,2.276,0.139,3.353,0.394c-1.096,1.022-1.782,2.478-1.782,4.094
		c0,3.093,2.507,5.6,5.601,5.6c2.271,0,4.226-1.354,5.104-3.297c1.285,2.042,2.074,4.427,2.199,6.986
		c-0.752-0.375-1.6-0.587-2.496-0.587C-348.051-700.274-350.558-697.767-350.558-694.674z M-357.039-701.466
		c-1.635,0-2.959,1.325-2.959,2.96s1.325,2.959,2.959,2.959c1.634,0,2.96-1.324,2.96-2.959S-355.404-701.466-357.039-701.466z"/>
	<circle id="Oval-4" fill="none" stroke="#23BAB5" cx="-357" cy="-699" r="45"/>
</g>
</svg>
