<?xml version="1.0" encoding="utf-8"?>
<!-- Generator: Adobe Illustrator 15.0.0, SVG Export Plug-In . SVG Version: 6.00 Build 0)  -->
<!DOCTYPE svg PUBLIC "-//W3C//DTD SVG 1.1//EN" "http://www.w3.org/Graphics/SVG/1.1/DTD/svg11.dtd">
<svg version="1.1" id="图层_1" xmlns="http://www.w3.org/2000/svg" xmlns:xlink="http://www.w3.org/1999/xlink" x="0px" y="0px"
	 width="213.75px" height="51.02px" viewBox="0 0 213.75 51.02" enable-background="new 0 0 213.75 51.02" xml:space="preserve">
<g>
	<g id="XMLID_1214_">
		<g id="XMLID_1216_">
			<path id="XMLID_11294_" fill="#FFFFFF" d="M70.692,29.399c-0.008-0.006-0.015-0.012-0.018-0.019
				c-0.171-0.187-0.438-0.304-0.771-0.304h-0.004h-3.689H45.515h-3.69H41.82c-0.333,0-0.673,0.117-0.955,0.304
				c-0.011,0.007-0.021,0.013-0.03,0.019c-0.01,0.004-0.018,0.016-0.028,0.021c-0.274,0.198-0.488,0.464-0.579,0.756l0,0
				l-0.988,3.233l-4.058,13.249l-0.989,3.232v0.002c-0.089,0.291-0.037,0.557,0.118,0.755c0.005,0.006,0.009,0.016,0.011,0.021
				c0.008,0.009,0.015,0.012,0.019,0.019c0.172,0.188,0.436,0.305,0.771,0.305h0.003h3.69h20.699h3.69l0,0
				c0.337,0,0.673-0.117,0.956-0.305c0.011-0.007,0.021-0.01,0.029-0.019c0.01-0.005,0.018-0.015,0.029-0.021
				c0.276-0.198,0.488-0.464,0.579-0.755v-0.002l0.988-3.232l4.055-13.249l0.992-3.233l0,0c0.086-0.292,0.037-0.558-0.12-0.756
				C70.698,29.415,70.698,29.403,70.692,29.399z M45.109,34.506h18.185L59.91,45.559H41.727L45.109,34.506z"/>
			<path id="XMLID_11250_" fill="#FFFFFF" d="M103.854,29.077h-6.226h-6.321h-3.691H81.3h-6.227c-0.694,0-1.309,0.492-1.371,1.099
				l-0.34,3.233c-0.061,0.606,0.45,1.097,1.145,1.097h4.037h6.154L79.99,49.893c-0.183,0.604,0.224,1.099,0.919,1.099h3.693
				c0.691,0,1.405-0.494,1.593-1.099l4.706-15.387h6.157h4.038c0.695,0,1.505-0.49,1.813-1.097l1.643-3.233
				C104.861,29.569,104.546,29.077,103.854,29.077z"/>
			<path id="XMLID_1220_" fill="#FFFFFF" d="M169.46,45.559h-7.016H145.24h-1.077l3.381-11.053h57.598h4.039
				c0.696,0,1.51-0.49,1.818-1.097l1.636-3.233c0.313-0.606-0.003-1.099-0.695-1.099h-6.228h-55.424h-2.333h-3.694h-0.205
				c-0.651,0-1.233,0.44-1.346,1.002c-0.015,0.031-0.033,0.065-0.042,0.097l-6.033,19.717c-0.187,0.604,0.223,1.099,0.918,1.099
				h0.892h2.802h1.236h18.655h5.566c0.694,0,1.508-0.494,1.814-1.101l1.639-3.232C170.466,46.049,170.152,45.559,169.46,45.559z"/>
			<path id="XMLID_1217_" fill="#FFFFFF" d="M137.897,29.399c-0.01-0.006-0.016-0.012-0.021-0.019
				c-0.169-0.187-0.435-0.304-0.772-0.304l0,0h-3.69h-20.696h-3.689h-0.003c-0.334,0-0.672,0.117-0.955,0.304
				c-0.011,0.007-0.022,0.013-0.03,0.019c-0.011,0.004-0.018,0.016-0.028,0.021c-0.275,0.198-0.489,0.464-0.578,0.756l0,0
				l-0.989,3.233l-4.059,13.249l-0.988,3.232v0.002c-0.09,0.291-0.037,0.557,0.117,0.755c0.006,0.006,0.01,0.016,0.014,0.021
				c0.007,0.009,0.015,0.012,0.018,0.019c0.17,0.188,0.434,0.305,0.771,0.305h0.002h3.69h20.694h3.691l0,0
				c0.337,0,0.677-0.117,0.96-0.305c0.011-0.007,0.019-0.01,0.027-0.019c0.011-0.005,0.018-0.015,0.026-0.021
				c0.278-0.198,0.491-0.464,0.577-0.755v-0.002l0.993-3.232l4.055-13.249l0.988-3.233h0.002c0.089-0.292,0.036-0.558-0.118-0.756
				C137.902,29.415,137.9,29.403,137.897,29.399z M112.313,34.506h18.181l-3.382,11.053h-18.181L112.313,34.506z"/>
		</g>
		<path id="XMLID_1215_" fill="#FFFFFF" d="M192.563,45.591h-14.728l0,0h-1.844c-0.693,0-1.512,0.492-1.822,1.097l-1.633,3.232
			c-0.309,0.607,0,1.1,0.69,1.1h14.729v-0.002h1.844c0.69,0,1.508-0.493,1.821-1.098l1.636-3.232
			C193.563,46.083,193.256,45.591,192.563,45.591z"/>
	</g>
	<path id="XMLID_1213_" fill="#FFFFFF" d="M195.557,23.936c-4.23-1.243-9.488-2.972-13.504-4.894
		c-6.544-3.133-14.772-6.774-23.073-9.662c-10.954-3.812-28.695-7.172-41.101-7.172c-29.812,0-56.581,14.265-61.179,15.448
		c-4.605,1.18-17.746,1.52-33.193,8.485C10.107,32.183,1,51.002,1,51.002h24.79c0,0-1.808-3.895-6.005-3.895
		c-3.564,0-10.763,0-10.763,0s4.136-11.238,15.381-17.972c11.974-7.17,27.166-7.558,34.32-9.492
		c7.499-2.031,31.164-14.012,56.197-14.012c24.015,0,47.695,13.208,55.938,18.304H195.557z"/>
</g>
</svg>
